<svg width="41" height="41" viewBox="0 0 41 41" fill="none" xmlns="http://www.w3.org/2000/svg">
<g clip-path="url(#clip0_1_4675)">
<path d="M22.2078 21.484V20.4191H25.459V16.7092H23.6182L30.7549 7.42578H25.8725L20.8145 13.9961L15.7564 7.42578H10.874L18.0164 16.7092H16.1756V20.4191H19.4268V21.484C15.9943 22.1354 13.3945 25.1543 13.3945 28.7736C13.3945 32.8687 16.725 36.1992 20.8201 36.1992C24.9152 36.1992 28.2457 32.8687 28.2457 28.7736C28.24 25.1543 25.6346 22.1354 22.2078 21.484ZM26.3256 8.35469H28.8688L22.44 16.7092H19.8969L21.3299 14.8457L21.3979 14.7607L26.3256 8.35469ZM15.3033 8.35469L20.2311 14.7607L18.9623 16.4146L12.7602 8.35469H15.3033ZM17.0988 19.4902V17.6324H18.0107H22.8932H24.5187V19.4902H22.1965H19.4098H17.0988ZM20.35 21.348V20.4191H21.2789V21.348H20.35ZM20.8145 35.2703C17.2291 35.2703 14.3178 32.3533 14.3178 28.7736C14.3178 25.1883 17.2348 22.277 20.8145 22.277C24.3998 22.277 27.3111 25.1939 27.3111 28.7736C27.3111 32.359 24.3998 35.2703 20.8145 35.2703Z" fill="#F4D059"/>
<path d="M20.8148 23.2061C17.7449 23.2061 15.2471 25.7039 15.2471 28.7738C15.2471 31.8437 17.7449 34.3416 20.8148 34.3416C23.8848 34.3416 26.3826 31.8437 26.3826 28.7738C26.3826 25.7039 23.8848 23.2061 20.8148 23.2061ZM20.8148 33.4127C18.2547 33.4127 16.176 31.3283 16.176 28.7738C16.176 26.2137 18.2604 24.135 20.8148 24.135C23.375 24.135 25.4537 26.2193 25.4537 28.7738C25.4537 31.334 23.375 33.4127 20.8148 33.4127Z" fill="#F4D059"/>
<path d="M20.8148 24.9502L19.9766 27.5387H17.2578L19.4611 29.1359L18.6115 31.7244L20.8148 30.1271L23.0182 31.7244L22.1742 29.1416L24.3775 27.5443H21.6588L20.8148 24.9502ZM21.251 29.2945L20.8148 28.9773L20.3787 29.2945L20.543 28.7848L20.1068 28.4676H20.6449L20.8092 27.9578L20.9734 28.4676H21.5115L21.0754 28.7848L21.251 29.2945Z" fill="#F4D059"/>
<path d="M20.3496 18.1025H21.2785V19.0314H20.3496V18.1025Z" fill="#F4D059"/>
<path d="M22.208 18.1025H23.1369V19.0314H22.208V18.1025Z" fill="#F4D059"/>
<path d="M18.4922 18.1025H19.4211V19.0314H18.4922V18.1025Z" fill="#F4D059"/>
</g>
<defs>
<clipPath id="clip0_1_4675">
<rect width="29" height="29" fill="white" transform="translate(6.31445 7.3125)"/>
</clipPath>
</defs>
</svg>
