<svg width="41" height="41" viewBox="0 0 41 41" fill="none" xmlns="http://www.w3.org/2000/svg">
<g clip-path="url(#clip0_1_4663)">
<path d="M23.0103 17.4479C22.5622 16.5933 21.5014 16.2617 20.6447 16.7103L13.5817 20.4157C12.7239 20.8653 12.3938 21.9229 12.8437 22.7813L16.7157 30.1633C17.1646 31.0182 18.2249 31.35 19.0817 30.9009L26.1451 27.1959C27.0026 26.7461 27.3326 25.6879 26.8827 24.8303L23.0103 17.4479ZM25.7486 26.4404L18.6852 30.1453C18.2463 30.3769 17.7019 30.2057 17.4712 29.7668L13.5992 22.3847C13.3705 21.9486 13.5329 21.4044 13.9778 21.1711L21.0408 17.4657C21.4873 17.2327 22.0278 17.4109 22.2548 17.8443L26.1272 25.2267C26.3587 25.6682 26.1881 26.2099 25.7486 26.4404Z" fill="#F4D059"/>
<path d="M28.8855 20.9655L32.7365 15.9417C33.0521 15.528 33.1033 14.9821 32.873 14.5173C32.6469 14.0524 32.1821 13.7667 31.666 13.7667H31.3718V9.32714C31.3718 8.39743 30.6169 7.64258 29.6872 7.64258H25.9471C25.0174 7.64258 24.2625 8.39743 24.2625 9.32714V13.7667H23.9683C23.9213 13.7667 23.8787 13.7709 23.8318 13.7752L22.9234 12.0395C22.3221 10.9008 20.9062 10.4573 19.7675 11.0586L19.0169 11.451L18.3218 10.1203C17.891 9.30151 16.876 8.98592 16.0572 9.41665L14.5433 10.2099C13.669 9.31004 12.3725 8.65327 10.9268 8.40165C7.97561 7.88136 5.28031 9.15651 4.91355 11.2462C4.54252 13.3359 6.64502 15.4555 9.59193 15.9758C9.78384 16.0099 9.97149 16.0312 10.1591 16.0483L10.1805 16.0867L9.42991 16.479C8.28693 17.0761 7.84771 18.4919 8.44477 19.6349L15.4773 33.0431C16.0882 34.2089 17.5321 34.6202 18.6332 34.0283L28.9751 28.6078C30.1125 28.0083 30.56 26.6025 29.9559 25.4477L27.8748 21.4858C28.2713 21.4645 28.6381 21.2811 28.8855 20.9655ZM9.48105 14.7604L9.67296 15.1229C7.22502 14.6665 5.46796 13.0033 5.7537 11.3913C6.03943 9.77067 8.2912 8.80258 10.7775 9.24184C11.9503 9.44655 13.008 9.94125 13.7543 10.6237L10.189 12.4915C9.33959 12.9391 9.0646 13.97 9.48105 14.7604ZM29.201 25.8443C29.5763 26.5686 29.3161 27.4572 28.5784 27.853L18.2408 33.2735C17.5158 33.653 16.6159 33.3715 16.2363 32.6466L9.19958 19.2383C8.82002 18.5133 9.10149 17.6135 9.82649 17.2339L10.9524 16.6454C11.1571 16.5388 11.2338 16.2871 11.1358 16.0824C12.0911 16.0526 12.9739 15.8351 13.7031 15.464C14.2036 15.8287 14.9056 15.9332 15.5583 15.5963C16.4217 15.1469 16.7556 14.0747 16.3046 13.208C15.8483 12.3423 14.7779 12.0096 13.9121 12.4617C13.0677 12.9052 12.7308 13.9458 13.1445 14.7988C12.4621 15.1101 11.6134 15.2679 10.6965 15.2338L10.2359 14.3638C10.0321 13.973 10.1695 13.4636 10.5856 13.2464L16.4496 10.1715C16.8548 9.95831 17.3537 10.1161 17.567 10.517L18.4626 12.2229C18.5671 12.4321 18.8327 12.5134 19.0383 12.402L20.1642 11.8135C20.855 11.4428 21.7699 11.6839 22.1643 12.4361L23.0514 14.1292C22.5692 14.5597 22.4468 15.3481 22.8935 15.9417L26.4162 20.5348L29.201 25.8443ZM13.8822 14.3595C13.7202 13.9288 13.895 13.434 14.3087 13.2165C14.4451 13.144 14.5902 13.1142 14.7309 13.1142C14.6115 13.6004 14.313 14.0226 13.8822 14.3595ZM15.4985 13.5321C15.5156 13.5535 15.5327 13.5748 15.5497 13.6046C15.7805 14.0573 15.6051 14.6153 15.1616 14.8414C14.9612 14.948 14.7394 14.9693 14.5219 14.9182C14.9825 14.5343 15.3194 14.0652 15.4985 13.5321ZM27.4184 20.4452L23.5716 15.4214C23.3224 15.0891 23.5528 14.6196 23.9683 14.6196H24.689C24.9235 14.6196 25.1155 14.4277 25.1155 14.1932V9.32714C25.1155 8.86655 25.4908 8.49552 25.9471 8.49552H29.6872C30.1478 8.49552 30.5188 8.86655 30.5188 9.32714V14.1932C30.5188 14.4277 30.7108 14.6196 30.9453 14.6196H31.666C31.858 14.6196 32.0243 14.722 32.1096 14.8968C32.1949 15.0717 32.1778 15.2679 32.0584 15.4214L28.2074 20.4452C28.0197 20.6883 27.606 20.6883 27.4184 20.4452Z" fill="#F4D059"/>
<path d="M20.8347 20.4366C20.6056 20.3866 20.377 20.5316 20.3266 20.7615L19.0676 26.4934C19.0172 26.7237 19.1626 26.9511 19.3924 27.0015C19.6265 27.0521 19.8506 26.9037 19.9005 26.6766L21.1595 20.9447C21.2099 20.7144 21.0646 20.487 20.8347 20.4366Z" fill="#F4D059"/>
<path d="M18.8408 21.8429C18.4863 21.1574 17.6388 20.8871 16.9516 21.2411C16.2613 21.598 15.9942 22.4431 16.3494 23.1303C16.7038 23.8159 17.5496 24.0877 18.239 23.7325C18.9293 23.3757 19.1964 22.5306 18.8412 21.8434C18.8412 21.8433 18.8412 21.8433 18.8408 21.8429ZM17.8475 22.9745C17.5768 23.115 17.2466 23.0086 17.1074 22.7388C16.9701 22.4735 17.0688 22.1411 17.3431 21.9991C17.6123 21.8596 17.9445 21.9672 18.0836 22.2353C18.2208 22.5019 18.1207 22.8331 17.8475 22.9745Z" fill="#F4D059"/>
<path d="M21.833 23.8796C21.1467 24.2345 20.8768 25.082 21.2312 25.7684C21.5867 26.456 22.4295 26.7271 23.1204 26.371C23.8076 26.0158 24.0774 25.1682 23.7226 24.4814C23.3677 23.7955 22.5219 23.524 21.833 23.8796ZM22.7288 25.613C22.459 25.7514 22.1293 25.6486 21.9892 25.3769C21.8501 25.1083 21.9563 24.7763 22.2249 24.6372C22.4933 24.4981 22.8258 24.6043 22.9645 24.8729C23.1054 25.1459 22.9971 25.4746 22.7288 25.613Z" fill="#F4D059"/>
</g>
<defs>
<clipPath id="clip0_1_4663">
<rect width="29" height="29" fill="white" transform="translate(4.44336 6.46973)"/>
</clipPath>
</defs>
</svg>
