<svg width="41" height="41" viewBox="0 0 41 41" fill="none" xmlns="http://www.w3.org/2000/svg">
<g clip-path="url(#clip0_1_4688)">
<path d="M20.2754 24.5898C22.2741 24.5898 23.9004 22.9636 23.9004 20.9648C23.9004 18.9661 22.2741 17.3398 20.2754 17.3398C18.2767 17.3398 16.6504 18.9661 16.6504 20.9648C16.6504 22.9636 18.2767 24.5898 20.2754 24.5898ZM20.2754 18.2461C21.7748 18.2461 22.9941 19.4655 22.9941 20.9648C22.9941 22.4642 21.7748 23.6836 20.2754 23.6836C18.776 23.6836 17.5566 22.4642 17.5566 20.9648C17.5566 19.4655 18.776 18.2461 20.2754 18.2461Z" fill="#F4D059"/>
<path d="M20.2754 22.7773C21.275 22.7773 22.0879 21.9644 22.0879 20.9648C22.0879 19.9652 21.275 19.1523 20.2754 19.1523C19.2758 19.1523 18.4629 19.9652 18.4629 20.9648C18.4629 21.9644 19.2758 22.7773 20.2754 22.7773ZM20.2754 20.0586C20.7752 20.0586 21.1816 20.465 21.1816 20.9648C21.1816 21.4646 20.7752 21.8711 20.2754 21.8711C19.7756 21.8711 19.3691 21.4646 19.3691 20.9648C19.3691 20.465 19.7756 20.0586 20.2754 20.0586Z" fill="#F4D059"/>
<path d="M17.2984 26.3181L18.0904 25.9392C18.1611 25.9705 18.2322 26.0004 18.3038 26.0281L18.5952 26.8555H21.9551L22.2474 26.0281C22.3185 26 22.3897 25.9705 22.4608 25.9392L23.2529 26.3181L25.6291 23.9419L25.2502 23.1498C25.2815 23.0791 25.3114 23.008 25.3391 22.9364L26.166 22.645V19.2851L25.3386 18.9928C25.3105 18.9217 25.2811 18.8506 25.2498 18.7794L25.6286 17.9874L23.2524 15.6112L22.4604 15.99C22.3897 15.9587 22.3185 15.9288 22.2469 15.9012L21.9556 15.0742H18.5957L18.3034 15.9016C18.2323 15.9297 18.1611 15.9592 18.09 15.9904L17.2979 15.6116L14.9217 17.9878L15.3005 18.7799C15.2693 18.8506 15.2394 18.9217 15.2117 18.9933L14.3848 19.2847V22.6446L15.2122 22.9368C15.2403 23.008 15.2697 23.0791 15.301 23.1503L14.9222 23.9423L17.2984 26.3181ZM15.291 22.0034V19.9258L15.9218 19.7033L15.9929 19.4958C16.0523 19.3223 16.1252 19.1474 16.2095 18.9761L16.306 18.779L16.0169 18.1745L17.486 16.7055L18.0904 16.9946L18.2875 16.898C18.4588 16.8138 18.6337 16.7413 18.8073 16.6815L19.0148 16.6103L19.2368 15.9805H21.3144L21.5369 16.6112L21.7444 16.6824C21.918 16.7417 22.0929 16.8147 22.2642 16.899L22.4613 16.9955L23.0657 16.7064L24.5348 18.1754L24.2457 18.7799L24.3422 18.977C24.4265 19.1483 24.499 19.3232 24.5588 19.4967L24.6299 19.7043L25.2598 19.9263V22.0039L24.629 22.2263L24.5579 22.4339C24.4985 22.6074 24.4256 22.7823 24.3413 22.9536L24.2448 23.1507L24.5339 23.7552L23.0648 25.2242L22.4604 24.9351L22.2633 25.0316C22.092 25.1159 21.9171 25.1884 21.7435 25.2482L21.536 25.3194L21.314 25.9492H19.2364L19.0139 25.3185L18.8064 25.2473C18.6328 25.188 18.4579 25.115 18.2866 25.0307L18.0895 24.9342L17.485 25.2233L16.016 23.7543L16.3051 23.1498L16.2086 22.9527C16.1243 22.7814 16.0518 22.6065 15.992 22.433L15.9209 22.2254L15.291 22.0034Z" fill="#F4D059"/>
<path d="M12.1191 27.7617H7.58789C6.83842 27.7617 6.22852 28.3716 6.22852 29.1211V33.6523C6.22852 34.4018 6.83842 35.0117 7.58789 35.0117H12.1191C12.8686 35.0117 13.4785 34.4018 13.4785 33.6523V29.1211C13.4785 28.3716 12.8686 27.7617 12.1191 27.7617ZM12.5723 33.6523C12.5723 33.902 12.3688 34.1055 12.1191 34.1055H7.58789C7.33822 34.1055 7.13477 33.902 7.13477 33.6523V29.1211C7.13477 28.8714 7.33822 28.668 7.58789 28.668H12.1191C12.3688 28.668 12.5723 28.8714 12.5723 29.1211V33.6523Z" fill="#F4D059"/>
<path d="M32.9629 17.3398H28.4316C27.6822 17.3398 27.0723 17.9498 27.0723 18.6992V23.2305C27.0723 23.9799 27.6822 24.5898 28.4316 24.5898H32.9629C33.7124 24.5898 34.3223 23.9799 34.3223 23.2305V18.6992C34.3223 17.9498 33.7124 17.3398 32.9629 17.3398ZM33.416 23.2305C33.416 23.4801 33.2126 23.6836 32.9629 23.6836H28.4316C28.182 23.6836 27.9785 23.4801 27.9785 23.2305V18.6992C27.9785 18.4495 28.182 18.2461 28.4316 18.2461H32.9629C33.2126 18.2461 33.416 18.4495 33.416 18.6992V23.2305Z" fill="#F4D059"/>
<path d="M10.3066 14.168H14.8379C15.5874 14.168 16.1973 13.5581 16.1973 12.8086V8.27734C16.1973 7.52788 15.5874 6.91797 14.8379 6.91797H10.3066C9.55717 6.91797 8.94727 7.52788 8.94727 8.27734V12.8086C8.94727 13.5581 9.55717 14.168 10.3066 14.168ZM9.85352 8.27734C9.85352 8.02767 10.057 7.82422 10.3066 7.82422H14.8379C15.0876 7.82422 15.291 8.02767 15.291 8.27734V12.8086C15.291 13.0583 15.0876 13.2617 14.8379 13.2617H10.3066C10.057 13.2617 9.85352 13.0583 9.85352 12.8086V8.27734Z" fill="#F4D059"/>
<path d="M8.94731 32.1054L8.36142 31.5195L7.7207 32.1603L8.94731 33.3869L11.9864 30.3478L11.3457 29.707L8.94731 32.1054Z" fill="#F4D059"/>
<path d="M14.7052 9.504L14.0645 8.86328L11.6661 11.2617L11.0802 10.6758L10.4395 11.3165L11.6661 12.5431L14.7052 9.504Z" fill="#F4D059"/>
<path d="M29.7911 21.6835L29.2052 21.0977L28.5645 21.7384L29.7911 22.965L32.8302 19.9259L32.1895 19.2852L29.7911 21.6835Z" fill="#F4D059"/>
<path d="M26.9617 26.8693L27.1815 27.7483L29.757 27.1044C27.6767 30.3271 24.1351 32.2932 20.275 32.2932C18.617 32.2932 17.0193 31.9434 15.5267 31.2533L15.1465 32.0757C16.7592 32.8215 18.4847 33.1994 20.275 33.1994C24.3798 33.1994 28.1498 31.1422 30.41 27.7601L30.7005 30.0837L31.5995 29.9714L31.0829 25.8389L26.9617 26.8693Z" fill="#F4D059"/>
<path d="M11.2008 22.8823L10.3194 22.6716L9.76662 24.9852C9.22469 23.644 8.94738 22.2959 8.94738 20.9647C8.94738 19.2926 9.30308 17.6827 10.0045 16.1788L9.183 15.7954C8.42538 17.4203 8.04113 19.1594 8.04113 20.9647C8.04113 22.407 8.33792 23.8619 8.91792 25.3051L6.90061 24.1927L6.46289 24.9866L10.2048 27.0492L11.2008 22.8823Z" fill="#F4D059"/>
<path d="M20.9796 10.6191L19.506 9.63677H20.275C24.514 9.63677 28.366 11.974 30.3271 15.7363L31.1305 15.3171C29.0131 11.2544 24.8534 8.73052 20.275 8.73052H19.506L20.9796 7.74814L20.4771 6.99414L17.1924 9.18364L20.4766 11.3731L20.9796 10.6191Z" fill="#F4D059"/>
</g>
<defs>
<clipPath id="clip0_1_4688">
<rect width="29" height="29" fill="white" transform="translate(5.77539 6.46484)"/>
</clipPath>
</defs>
</svg>
